<svg width="24" height="24" viewBox="0 0 24 24" fill="none" xmlns="http://www.w3.org/2000/svg">
<path d="M6.50985 7.30659C6.49978 10.2818 8.9114 12.7096 11.8886 12.7188H11.8889H11.9209C14.9041 12.7188 17.3299 10.293 17.3299 7.30976C17.3299 4.32655 14.9041 1.89976 11.9209 1.89976C8.93676 1.89976 6.50994 4.32639 6.50985 7.30659ZM6.50985 7.30659C6.50985 7.30664 6.50985 7.3067 6.50985 7.30676H6.60985L6.50985 7.30641C6.50985 7.30647 6.50985 7.30653 6.50985 7.30659ZM11.9208 21.9702H11.9209C13.6211 21.9702 15.6148 21.8753 17.186 21.3627C17.9723 21.1062 18.6605 20.7427 19.1528 20.2273C19.6476 19.7093 19.9399 19.0427 19.9399 18.1932C19.9399 17.2749 19.5826 16.5738 19.0132 16.0434C18.4468 15.5158 17.6738 15.1595 16.8419 14.9177C15.1787 14.4341 13.2469 14.399 12.1643 14.3964H12.164L11.7113 14.3967L11.7109 14.3967C10.0233 14.4048 8.08126 14.5164 6.55843 15.0356C5.79627 15.2954 5.13181 15.6597 4.65717 16.1708C4.18037 16.6843 3.89988 17.341 3.89988 18.1732C3.89988 19.0914 4.25731 19.7925 4.82684 20.3229C5.39339 20.8505 6.16667 21.2068 6.99877 21.4487C8.66251 21.9322 10.5948 21.9673 11.6774 21.9699H11.6776L11.9208 21.9702ZM8.13786 7.31008V7.30976C8.13786 5.22402 9.83507 3.52776 11.9209 3.52776C14.0056 3.52776 15.7019 5.22397 15.7019 7.30976C15.7019 9.39456 14.0056 11.0918 11.9209 11.0918L11.8923 11.0918C11.8922 11.0918 11.8921 11.0918 11.892 11.0918C9.81532 11.0838 8.13106 9.38878 8.13786 7.31008ZM5.59988 18.1732C5.59988 17.5165 6.08536 16.9966 7.14461 16.6375C8.20145 16.2792 9.79349 16.0962 11.9209 16.0962C14.0477 16.0962 15.6391 16.281 16.6955 16.6425C17.7538 17.0048 18.2399 17.5295 18.2399 18.1932C18.2399 18.8498 17.7546 19.3697 16.6958 19.7288C15.6393 20.0871 14.0478 20.2702 11.9209 20.2702C9.79353 20.2702 8.2016 20.0854 7.14488 19.7238C6.08612 19.3615 5.59988 18.8368 5.59988 18.1732Z" fill="#98A2B3" stroke="#101828" stroke-width="0.2"/>
</svg>
